Coordinates
version=1
nRows=32
nColumns=12
inDegrees=yes

Units are S.I. units (second, meters, Newtons, ...)
Angles are in degrees

endheader
time	SC_y	SC_z	SC_x	AC_y	AC_z	AC_x	GH_y	GH_z	GH_yy	EL_x	PS_y
       0.0              -22.36          29.43          4.919          39.54         -14.03          -1.58         -125.4          55.24          51.87          124.1          131.3
    0.0474              -22.36          29.43           4.92          39.54         -14.03          -1.58         -125.4          55.24          51.88          124.1          131.3
    0.0948              -22.37          29.43           4.92          39.54         -14.02         -1.579         -125.3          55.24           51.9          124.1          131.3
    0.1422              -22.37          29.43          4.921          39.54         -14.02         -1.579         -125.3          55.24          51.91          124.1          131.3
    0.1896              -22.37          29.43          4.922          39.55         -14.02         -1.578         -125.3          55.24          51.92          124.1          131.2
     0.237              -22.38          29.43          4.922          39.55         -14.02         -1.578         -125.3          55.24          51.94          124.1          131.2
    0.2844              -22.38          29.43          4.923          39.55         -14.02         -1.577         -125.3          55.24          51.96          124.1          131.2
    0.3318              -22.39          29.42          4.924          39.55         -14.01         -1.576         -125.3          55.24          51.97          124.1          131.2
    0.3792               -22.4          29.42          4.924          39.55         -14.01         -1.575         -125.3          55.24          51.99          124.1          131.2
    0.4266               -22.4          29.42          4.925          39.56         -14.01         -1.575         -125.3          55.24          52.01          124.1          131.1
     0.474              -22.41          29.42          4.926          39.56         -14.01         -1.574         -125.3          55.24          52.03          124.1          131.1
    0.5214              -22.42          29.42          4.927          39.56          -14.0         -1.573         -125.3          55.24          52.06          124.0          131.1
    0.5688              -22.43          29.42          4.928          39.56          -14.0         -1.572         -125.3          55.24          52.08          124.0          131.1
    0.6162              -22.43          29.41          4.929          39.57          -14.0         -1.571         -125.2          55.24          52.11          124.0          131.0
    0.6636              -22.44          29.41           4.93          39.57         -13.99          -1.57         -125.2          55.24          52.14          124.0          131.0
     0.711              -22.45          29.41          4.932          39.57         -13.99         -1.568         -125.2          55.24          52.17          124.0          131.0
    0.7584              -22.46          29.41          4.933          39.58         -13.99         -1.567         -125.2          55.24           52.2          124.0          130.9
    0.8058              -22.48          29.41          4.935          39.58         -13.98         -1.565         -125.2          55.24          52.24          123.9          130.9
    0.8532              -22.49           29.4          4.936          39.59         -13.98         -1.564         -125.2          55.24          52.28          123.9          130.8
    0.9006               -22.5           29.4          4.938          39.59         -13.97         -1.562         -125.1          55.24          52.32          123.9          130.8
     0.948              -22.52           29.4           4.94           39.6         -13.97          -1.56         -125.1          55.24          52.37          123.9          130.7
    0.9954              -22.54          29.39          4.942           39.6         -13.96         -1.558         -125.1          55.24          52.43          123.8          130.7
     1.043              -22.56          29.39          4.945          39.61         -13.95         -1.556         -125.1          55.24          52.49          123.8          130.6
      1.09              -22.58          29.38          4.948          39.62         -13.94         -1.553         -125.0          55.24          52.55          123.8          130.5
     1.138               -22.6          29.38          4.951          39.62         -13.93          -1.55         -125.0          55.24          52.63          123.7          130.5
     1.185              -22.63          29.37          4.954          39.63         -13.92         -1.547         -125.0          55.24          52.71          123.7          130.4
     1.232              -22.66          29.37          4.958          39.64         -13.91         -1.543         -124.9          55.24           52.8          123.6          130.3
      1.28              -22.69          29.36          4.962          39.66          -13.9         -1.539         -124.9          55.24           52.9          123.6          130.2
     1.327              -22.73          29.35          4.967          39.67         -13.89         -1.534         -124.8          55.24          53.02          123.5          130.0
     1.375              -22.77          29.34          4.972          39.68         -13.87         -1.529         -124.7          55.24          53.15          123.4          129.9
     1.422              -22.82          29.33          4.978           39.7         -13.85         -1.523         -124.7          55.24           53.3          123.4          129.7
     1.469              -22.88          29.32          4.986          39.72         -13.83         -1.516         -124.6          55.24          53.48          123.3          129.5
